<svg width="42" height="14" viewBox="0 0 42 14" fill="none" xmlns="http://www.w3.org/2000/svg">
<path d="M9.63636 1.36364V13H8.27273L1.93182 3.86364H1.81818V13H0.409091V1.36364H1.77273L8.13636 10.5227H8.25V1.36364H9.63636ZM12.2741 13V4.27273H13.6151V13H12.2741ZM12.956 2.81818C12.6946 2.81818 12.4692 2.72917 12.2798 2.55114C12.0942 2.37311 12.0014 2.15909 12.0014 1.90909C12.0014 1.65909 12.0942 1.44508 12.2798 1.26705C12.4692 1.08902 12.6946 1 12.956 1C13.2173 1 13.4408 1.08902 13.6264 1.26705C13.8158 1.44508 13.9105 1.65909 13.9105 1.90909C13.9105 2.15909 13.8158 2.37311 13.6264 2.55114C13.4408 2.72917 13.2173 2.81818 12.956 2.81818ZM17.4119 7.75V13H16.071V4.27273H17.3665V5.63636H17.4801C17.6847 5.19318 17.9953 4.83712 18.4119 4.56818C18.8286 4.29545 19.3665 4.15909 20.0256 4.15909C20.6165 4.15909 21.1335 4.2803 21.5767 4.52273C22.0199 4.76136 22.3646 5.125 22.6108 5.61364C22.857 6.09848 22.9801 6.71212 22.9801 7.45455V13H21.6392V7.54545C21.6392 6.85985 21.4612 6.32576 21.1051 5.94318C20.7491 5.55682 20.2604 5.36364 19.6392 5.36364C19.2112 5.36364 18.8286 5.45644 18.4915 5.64205C18.1581 5.82765 17.8949 6.09848 17.7017 6.45455C17.5085 6.81061 17.4119 7.24242 17.4119 7.75ZM29.0895 13.1818C28.2486 13.1818 27.5232 12.9962 26.9134 12.625C26.3073 12.25 25.8395 11.7273 25.5099 11.0568C25.1842 10.3826 25.0213 9.59848 25.0213 8.70455C25.0213 7.81061 25.1842 7.02273 25.5099 6.34091C25.8395 5.6553 26.2978 5.12121 26.8849 4.73864C27.4759 4.35227 28.1652 4.15909 28.9531 4.15909C29.4077 4.15909 29.8565 4.23485 30.2997 4.38636C30.7429 4.53788 31.1463 4.78409 31.5099 5.125C31.8736 5.46212 32.1634 5.90909 32.3793 6.46591C32.5952 7.02273 32.7031 7.70833 32.7031 8.52273V9.09091H25.9759V7.93182H31.3395C31.3395 7.43939 31.241 7 31.044 6.61364C30.8509 6.22727 30.5743 5.92235 30.2145 5.69886C29.8584 5.47538 29.438 5.36364 28.9531 5.36364C28.419 5.36364 27.9569 5.49621 27.5668 5.76136C27.1804 6.02273 26.883 6.36364 26.6747 6.78409C26.4664 7.20455 26.3622 7.6553 26.3622 8.13636V8.90909C26.3622 9.56818 26.4759 10.1269 26.7031 10.5852C26.9342 11.0398 27.2543 11.3864 27.6634 11.625C28.0724 11.8598 28.5478 11.9773 29.0895 11.9773C29.4418 11.9773 29.7599 11.928 30.044 11.8295C30.3319 11.7273 30.58 11.5758 30.7884 11.375C30.9967 11.1705 31.1577 10.9167 31.2713 10.6136L32.5668 10.9773C32.4304 11.4167 32.2012 11.803 31.8793 12.1364C31.5573 12.4659 31.1596 12.7235 30.6861 12.9091C30.2126 13.0909 29.6804 13.1818 29.0895 13.1818Z" fill="#F7C5CC"/>
<path d="M34.9688 13V1H37.7109V3H37.8359C38.0547 2.30729 38.4297 1.77344 38.9609 1.39844C39.4974 1.01823 40.1094 0.828125 40.7969 0.828125C40.9531 0.828125 41.1276 0.835937 41.3203 0.851562C41.5182 0.861979 41.6823 0.880208 41.8125 0.906249V3.50781C41.6927 3.46615 41.5026 3.42969 41.2422 3.39844C40.987 3.36198 40.7396 3.34375 40.5 3.34375C39.9844 3.34375 39.5208 3.45573 39.1094 3.67969C38.7031 3.89844 38.3828 4.20312 38.1484 4.59375C37.9141 4.98437 37.7969 5.4349 37.7969 5.94531V13H34.9688Z" fill="#CC313D"/>
</svg>
