<svg width="18" height="14" viewBox="0 0 18 14" fill="none" xmlns="http://www.w3.org/2000/svg">
<path d="M3.90909 1.20455C4.38636 1.20833 4.86364 1.29924 5.34091 1.47727C5.81818 1.6553 6.25379 1.95076 6.64773 2.36364C7.04167 2.77273 7.35795 3.33144 7.59659 4.03977C7.83523 4.74811 7.95455 5.63636 7.95455 6.70455C7.95455 7.73864 7.85606 8.6572 7.65909 9.46023C7.46591 10.2595 7.18561 10.9337 6.81818 11.483C6.45455 12.0322 6.01136 12.4489 5.48864 12.733C4.9697 13.017 4.38258 13.1591 3.72727 13.1591C3.07576 13.1591 2.49432 13.0303 1.98295 12.7727C1.47538 12.5114 1.05871 12.1496 0.732955 11.6875C0.410985 11.2216 0.204545 10.6818 0.113636 10.0682H1.5C1.625 10.6023 1.87311 11.0436 2.24432 11.392C2.61932 11.7367 3.11364 11.9091 3.72727 11.9091C4.625 11.9091 5.33333 11.517 5.85227 10.733C6.375 9.94886 6.63636 8.84091 6.63636 7.40909H6.54545C6.33333 7.72727 6.08144 8.00189 5.78977 8.23295C5.49811 8.46402 5.17424 8.64205 4.81818 8.76705C4.46212 8.89205 4.08333 8.95455 3.68182 8.95455C3.01515 8.95455 2.40341 8.78977 1.84659 8.46023C1.29356 8.12689 0.850379 7.67045 0.517045 7.09091C0.1875 6.50758 0.0227273 5.84091 0.0227273 5.09091C0.0227273 4.37879 0.181818 3.72727 0.5 3.13636C0.82197 2.54167 1.27273 2.06818 1.85227 1.71591C2.43561 1.36364 3.12121 1.19318 3.90909 1.20455ZM3.90909 2.45455C3.43182 2.45455 3.00189 2.57386 2.61932 2.8125C2.24053 3.04735 1.93939 3.36553 1.71591 3.76705C1.49621 4.16477 1.38636 4.60606 1.38636 5.09091C1.38636 5.57576 1.49242 6.01705 1.70455 6.41477C1.92045 6.80871 2.21402 7.12311 2.58523 7.35795C2.96023 7.58902 3.38636 7.70455 3.86364 7.70455C4.22349 7.70455 4.55871 7.63447 4.86932 7.49432C5.17992 7.35038 5.45076 7.1553 5.68182 6.90909C5.91667 6.65909 6.10038 6.37689 6.23295 6.0625C6.36553 5.74432 6.43182 5.41288 6.43182 5.06818C6.43182 4.61364 6.32197 4.1875 6.10227 3.78977C5.88636 3.39205 5.58712 3.07008 5.20455 2.82386C4.82576 2.57765 4.39394 2.45455 3.90909 2.45455Z" fill="#F7C5CC"/>
<path d="M10.4375 13V1H13.1797V3H13.3047C13.5234 2.30729 13.8984 1.77344 14.4297 1.39844C14.9661 1.01823 15.5781 0.828125 16.2656 0.828125C16.4219 0.828125 16.5964 0.835937 16.7891 0.851562C16.987 0.861979 17.151 0.880208 17.2813 0.906249V3.50781C17.1615 3.46615 16.9714 3.42969 16.7109 3.39844C16.4557 3.36198 16.2083 3.34375 15.9688 3.34375C15.4531 3.34375 14.9896 3.45573 14.5781 3.67969C14.1719 3.89844 13.8516 4.20312 13.6172 4.59375C13.3828 4.98437 13.2656 5.4349 13.2656 5.94531V13H10.4375Z" fill="#CC313D"/>
</svg>
